<?xml version="1.0" standalone="no"?>
<!DOCTYPE svg PUBLIC "-//W3C//DTD SVG 20010904//EN"
 "http://www.w3.org/TR/2001/REC-SVG-20010904/DTD/svg10.dtd">
<svg version="1.0" xmlns="http://www.w3.org/2000/svg"
 width="500.000000pt" height="500.000000pt" viewBox="0 0 500.000000 500.000000"
 preserveAspectRatio="xMidYMid meet">

<g transform="translate(0.000000,500.000000) scale(0.100000,-0.100000)"
fill="#000000" stroke="none">
<path d="M4395 4378 c-176 -132 -346 -253 -377 -269 -101 -51 -171 -63 -388
-63 -251 0 -342 19 -753 153 -417 137 -585 177 -842 201 -430 40 -855 -57
-1046 -239 -67 -64 -75 -96 -34 -136 36 -37 61 -31 124 28 101 93 250 157 447
193 75 14 150 18 314 18 190 0 233 -3 372 -27 197 -35 349 -76 648 -177 361
-121 485 -148 740 -159 l145 -6 -35 -23 c-103 -66 -273 -92 -478 -74 -158 14
-265 41 -557 136 -439 143 -531 161 -855 161 -222 0 -242 -2 -352 -28 -193
-46 -323 -110 -402 -198 -41 -45 -44 -66 -15 -103 31 -40 68 -35 128 18 138
123 330 176 635 176 265 0 462 -38 846 -165 326 -108 459 -135 703 -148 l48
-2 -78 -58 -78 -59 -110 6 c-142 7 -267 37 -553 131 -357 116 -502 144 -740
145 -285 0 -524 -69 -650 -187 -60 -57 -67 -89 -27 -128 34 -35 56 -31 117 21
121 103 256 144 503 151 267 8 409 -18 815 -152 124 -41 266 -81 315 -90 50
-9 103 -20 119 -23 l30 -7 -71 -53 c-39 -28 -79 -52 -88 -52 -10 0 -132 38
-272 85 -304 102 -446 133 -639 142 -163 7 -297 -7 -424 -44 -241 -69 -384
-219 -268 -279 32 -17 33 -16 106 43 117 95 235 132 449 140 164 7 284 -6 452
-47 111 -27 438 -135 453 -148 4 -4 -57 -54 -134 -112 l-141 -104 -21 29 c-50
69 -92 107 -156 139 -120 59 -242 57 -363 -7 -67 -35 -115 -85 -154 -159 -25
-48 -28 -63 -28 -153 0 -95 2 -103 34 -163 19 -34 49 -76 68 -92 l34 -30 -333
-248 c-183 -136 -527 -391 -764 -567 -238 -176 -429 -323 -425 -326 23 -23
2074 -1060 2081 -1053 19 19 448 845 437 841 -308 -118 -621 -128 -916 -30
-128 42 -276 116 -291 143 -21 40 15 100 60 100 15 0 65 -18 111 -39 184 -86
337 -123 519 -124 197 -2 345 32 540 124 l105 50 70 135 c39 75 73 138 78 140
4 3 170 -108 370 -247 199 -139 374 -257 389 -263 23 -8 32 -7 55 10 16 12 29
31 31 43 2 12 -89 309 -203 660 l-206 638 42 79 c23 44 57 106 75 140 l33 61
58 -28 c73 -35 177 -53 251 -44 164 20 296 115 370 263 32 66 37 85 40 169 9
194 -67 338 -229 435 l-56 34 259 493 c143 271 258 494 256 495 -2 2 -147
-105 -323 -236z m-249 -932 c224 -104 223 -418 -3 -518 -165 -73 -356 27 -393
208 -28 133 54 275 185 322 56 20 155 14 211 -12z m-1878 -443 c60 -37 102
-103 108 -174 14 -145 -139 -269 -286 -230 -107 28 -175 112 -175 216 0 175
201 282 353 188z m1190 -438 c62 -192 170 -530 241 -750 71 -220 129 -400 128
-401 -2 -2 -1043 719 -1054 729 -5 5 123 187 470 665 49 68 93 120 97 115 4
-4 57 -165 118 -358z"/>
<path d="M750 3095 c-111 -32 -202 -114 -235 -216 -24 -71 -17 -179 15 -243
22 -42 120 -146 138 -146 4 0 118 83 255 185 166 124 247 190 247 203 0 24
-49 99 -91 139 -80 75 -220 108 -329 78z"/>
</g>
</svg>
